# xmcd
#
# Track frame offsets: 
#        150
#        14146
#        32665
#        55311
#        73366
#        91486
#        104257
#        120086
#        133243
#        149308
#        158731
#        178540
#        194326
#        211322
#        226347
#        241486
#        258664
#
# Disc length: 3661 seconds
#
# Revision: 1
# Processed by: cddbd v1.5PL3 Copyright (c) Steve Scherf et al.
# Submitted via: ExactAudioCopy v0.95a5
#
DISCID=f90e4b11
DTITLE=The Moonlighters - Hello Heartstring
DYEAR=1900
DGENRE=Bluegrass
TTITLE0=Hawaiian Blues
TTITLE1=Twi;ight in Flight
TTITLE2=Mighty Fine
TTITLE3=Resophonic Lullaby
TTITLE4=Moanin' Low
TTITLE5=Hello Heartstring
TTITLE6=Don't Know If I'm Coming or Going
TTITLE7=There Ain't No Sweet Man Worth The Salt of My Tears
TTITLE8=Indebted to You
TTITLE9=Stirred by a Spoon
TTITLE10=Forgotten man/Brother Can You Spare a Dime?
TTITLE11=Beyond the Reef
TTITLE12=Ticklin' the Strings Medley
TTITLE13=Hummin' to Myself
TTITLE14=Mississippi
TTITLE15=Farewell to the Blues
TTITLE16=Manhattan Lullaby
EXTD=
EXTT0=
EXTT1=
EXTT2=
EXTT3=
EXTT4=
EXTT5=
EXTT6=
EXTT7=
EXTT8=
EXTT9=
EXTT10=
EXTT11=
EXTT12=
EXTT13=
EXTT14=
EXTT15=
EXTT16=
PLAYORDER=
